<svg
            width="48"
            height="48"
            fill="none"
            xmlns="http://www.w3.org/2000/svg"
            id="header-logo"
          >
            <path
              fillRule="evenodd"
              clipRule="evenodd"
              d="M36.1752 23.6803L31.1324 14.9459C30.7713 14.3205 29.8686 14.3205 29.5075 14.9459L24.4647 23.6803C24.1036 24.3057 24.555 25.0875 25.2771 25.0875H35.3628C36.0849 25.0875 36.5363 24.3057 36.1752 23.6803ZM35.1947 12.6006C33.0281 8.84799 27.6118 8.84799 25.4452 12.6006L20.4024 21.335C18.2359 25.0875 20.9441 29.7782 25.2771 29.7782H35.3628C39.6958 29.7782 42.404 25.0875 40.2375 21.3349L35.1947 12.6006Z"
              fill="#2F80ED"
            />
            <path
              fillRule="evenodd"
              clipRule="evenodd"
              d="M26.6734 23.5295L16.5616 6.01525C16.2005 5.38983 15.2978 5.38982 14.9367 6.01525L4.82479 23.5295C4.46371 24.1549 4.91507 24.9367 5.63725 24.9367H25.861C26.5832 24.9367 27.0345 24.1549 26.6734 23.5295ZM20.6238 3.66989C18.4573 -0.0826759 13.0409 -0.082671 10.8744 3.6699L0.76252 21.1842C-1.40403 24.9367 1.30416 29.6274 5.63725 29.6274H25.861C30.1941 29.6274 32.9023 24.9367 30.7357 21.1842L20.6238 3.66989Z"
              fill="#2F80ED"
            />
            
          </svg>